Patient4_TMGait_0pt4_02_right_12_EMG.mot
version=1
nRows=36
nColumns=33
inDegrees=no
endheader
time	1LAddLong	2LGlutMax	3LGlutMed	4LIliopsoas	5LSemiMemb	6LBicFemLong	7LRecFem	8LVastMed	9LVastLat	10LGasMed	11LTibAnt	12lTibPost	13LPeroneusLong	14LSol	15LExtDigLong	16LFlexDigLong	17RAddLong	18RGlutMax	19RGlutMed	20RIliopsoas	21RSemiMemb	22RBicFemLong	23RRecFem	24RVastMed	25RVastLat	26RGasMed	27RTibAnt	28RTibPost	29RPeroneusLong	30RSol	31RExtDigLong	32RFlexDigLong
16.765	0.001221	-0.003204	0.026398	0.005188	0.016937	-0.003357	-0.00824	0.015564	-0.026245	0.032501	-0.023956	0.001526	0.029602	-0.016937	0.11749	0.004272	0.003967	0.003357	-0.27374	-0.011902	-0.034485	0.11002	-0.012817	-0.07843	0.010223	0.000916	-0.015259	-0.002136	0.04776	-0.022125	-0.006561	-0.013123
16.766	0.005341	0.00885	0.022736	0.007477	0.027924	-0.034332	-0.045471	0.014954	-0.056	0.032349	-0.037384	0.017853	0.019531	-0.007477	0.25253	0.003052	0.018768	0.000305	0.023956	0.016479	-0.010223	0.094147	-0.007324	-0.086823	0.020752	-0.002594	-0.026245	-0.004578	0.070343	0.007477	-0.001373	-0.011292
16.767	0.012817	-0.03067	-0.028687	0.015869	0.020752	-0.015869	0.013733	0.007477	0.001526	0.023041	-0.112	0.008545	0.020599	0.011597	-0.019989	0.000153	-0.011139	0.024872	0.06546	0.000916	-0.036011	0.11612	-0.028534	-0.12528	0.014954	0.005341	0.019073	-0.007477	0.018768	0.018158	-0.001221	-0.012817
16.768	-0.001221	-0.069733	0.027466	0.016174	0.012665	-0.00351	0.1387	0.003662	0.001221	0.02182	-0.10086	0.007629	0.023804	0.045776	-0.015564	0.01236	-0.006561	-0.030975	0.002899	0.03418	0.03952	0.050049	-0.050201	-0.019379	0.016785	0.00351	0.099945	-0.003204	0.051422	0.006714	-0.000458	-0.013275
16.769	0.00061	-0.022125	0.22339	0.005798	0.017853	0.010986	0.12421	0.013275	0.06424	0.052795	-0.012054	0.014648	-0.007629	0.048065	0.040131	0.001831	-0.011292	-0.027771	0.061188	-0.011444	0.070496	0.036011	-0.033569	-0.037842	0.009918	0.003967	0.045624	-0.007324	0.15747	-0.007629	-0.004578	-0.009766
16.77	-0.002289	-0.024872	0.10071	0.009155	0.011597	-0.006714	0.12955	0.014191	-0.015259	0.034485	0.11856	0.003967	-0.008087	0.028992	0.13199	0.003204	-0.007935	-0.03067	0.15091	0.010986	0.011139	0.070801	-0.020447	-0.062256	0.031433	0.000305	0.015717	-0.006561	0.093994	0.000763	-0.001068	-0.014038
16.771	0.005035	0.015259	0.063019	-0.003815	0.02121	-0.002289	0.070801	0.008392	-0.066986	0.038452	0.31296	0.013123	-0.010681	0.040894	0.12833	0.009613	-0.00946	-0.016785	-0.21591	-0.038452	-0.02243	0.13718	-0.045319	-0.061798	0.031433	0.001068	0.029907	-0.002289	-0.052643	-0.01358	-0.002747	-0.002747
16.772	0.002136	0.048065	0.009003	0.012665	0.013885	0.00946	0.022888	-0.00473	-0.010223	0.010986	0.38162	0.011749	0.002594	0.046844	0.023346	0.006409	-0.016785	0.034637	-0.22308	-0.033569	-0.045929	0.17242	0.005798	-0.05127	0.020447	0.002747	0.032043	-0.002899	-0.15793	-0.013885	-0.002899	-0.00351
16.773	0.006561	-0.003204	-0.003204	0.009766	0.022583	-0.021057	-0.011292	-0.01297	0.027161	0.036163	0.44174	-0.000305	-0.092621	0.035706	-0.056305	0.004425	-0.022888	0.041962	-0.28	-0.001678	-0.031433	0.13748	-0.023499	-0.054932	0.016479	0.005646	0.026703	-0.010529	-0.19943	0.000305	-0.002747	-0.005493
16.774	-0.000153	0.011139	0.007172	0.009155	0.022278	-0.011902	0.046234	-0.009918	0.03891	0.017853	0.23575	0.02121	-0.079041	0.057983	-0.0354	0.01236	-0.006866	0.049133	-0.38361	0.003357	-0.027618	0.098572	-0.081024	-0.049438	0.016632	0.005646	0.040283	-0.004883	-0.16861	-0.012817	-0.000916	-0.002136
16.775	0.005035	-0.012665	0.013275	0.011292	0.023346	-0.012207	0.045013	-0.000763	0.052948	-0.029297	-0.17181	0.006256	0.10407	0.072937	-0.16174	0.017853	0.002747	0.053253	-0.41046	-0.012817	-0.045624	0.063324	-0.020905	-0.06897	0.00473	0.002136	0.058746	-0.011292	-0.23941	-0.011902	-0.006104	0.00061
16.776	0.009613	0.014343	-0.030212	0.016937	0.022583	-0.024109	0.038605	0.006104	0.080109	-0.01236	-0.52078	0.010071	0.1181	0.048676	0.48492	0.005035	-0.001526	0.091705	0.058289	-0.024261	-0.075378	0.0354	-0.02243	-0.093231	0.009155	0.007629	0.022278	-0.007629	-0.35492	-0.014496	-0.001831	0.012817
16.777	0.011139	-0.001068	0.017395	0.010986	0.02533	0.009613	0.002136	-0.001526	0.052338	0.049286	-0.24323	0.010529	0.000763	0.06485	0.37354	0.005951	0.003815	0.049133	0.2507	0	-0.034027	0.060883	-0.015411	-0.070038	0.029602	0.00824	0.010223	-0.000916	-0.40237	-0.044708	-0.002136	0.009918
16.778	0.014191	-0.030823	0.023193	-0.005188	0.021667	-0.012054	-0.093536	0.011902	0.062103	0.052643	-0.045776	0.005035	-0.051727	0.10819	0.38086	0.019989	0.009155	0.002136	-0.16708	0.034332	0.050354	0.032196	-0.012817	-0.068512	0.007782	0.004272	-0.00473	-0.006104	-0.14771	-0.019989	0.001068	0.01358
16.779	0.009918	-0.027313	-0.030212	0.00824	0.018921	-0.003967	-0.072174	-0.006256	0.073395	-0.028992	-0.041504	0.008698	0.017242	0.12482	0.13626	0.013123	0.016479	0.016479	-0.86838	0.080414	0.11261	0.010223	-0.049896	-0.11246	0.013885	0.003662	0.01709	-0.005951	-0.072937	0.024414	-0.001221	0.014954
16.78	0.007477	-0.05249	-0.089569	0.001678	0.021515	-0.028381	-0.057678	-0.012512	0.063629	-0.016785	-0.12238	0.00946	0.062408	0.087738	-0.20844	0.013123	0.027161	0.04715	-1.0263	0.065002	0.095215	0.033569	-0.034637	-0.089417	-0.001068	0.006256	-0.048065	-0.005646	0.7103	-0.019989	-0.00351	0.028076
16.781	-0.006256	-0.041199	-0.054779	0.007782	0.021973	-0.00351	0.042877	-0.008545	0.021057	0.00473	-0.16174	-0.003052	0.091858	0.09964	-0.47501	-0.007782	0.027618	0.068054	-0.44113	0.02243	-0.001373	0.12878	-0.025787	-0.097961	0.024414	0.001221	-0.051727	-0.00885	0.80963	0.032349	-0.00351	0.023651
16.782	-0.008392	-0.014954	0.044708	0.027161	0.026703	0.005188	0.02533	-0.009155	0.025482	0.036621	-0.02533	0.010071	0.03418	0.020447	-0.10544	-0.016174	0.004272	0.13733	0.45761	-0.06546	-0.053558	0.18387	-0.011444	-0.071411	0.040588	0.001831	-0.028076	-0.008392	0.20935	0.026398	-0.001984	0.023956
16.783	-0.000305	-0.046234	0.089874	0.010681	0.014648	0.016174	0.056458	-0.015564	0.065002	0.046234	-0.16068	0.001373	0.013428	-0.088501	-0.27237	-0.017242	-0.002747	0.095062	1.3724	-0.054626	-0.075684	0.14282	-0.069885	-0.076294	0.018463	0.006714	-0.009613	-0.007477	0.071106	0.011444	0.000305	0.017853
16.784	0.008698	-0.007782	-0.024109	0.004272	0.019379	0.043488	0.090179	-0.012207	0.056305	0.038147	-0.24399	0.006409	-0.034027	-0.098877	0.19882	-0.010071	-0.006104	0.03952	1.1099	-0.063171	-0.20844	0.10803	-0.047302	-0.026093	0.030365	-0.00061	0.023041	-0.006256	0.12955	-0.013275	-0.002899	0.021362
16.785	-0.004578	-0.052185	-0.052948	-0.001831	0.014496	0.033264	0.11765	-0.010986	0.080872	-0.012512	-0.16235	0.00473	0.031281	0.10513	-0.18356	0.007935	-0.014038	-0.012054	-0.016937	0.004578	-0.22217	0.093231	-0.045929	-0.017548	0.029449	-0.005341	0.05722	-0.009308	0.11292	-0.015869	-0.001831	0.012665
16.786	-0.000458	-0.046234	0.057831	0.002289	0.019226	0.099182	0.12146	-0.009766	0.080566	-0.01297	-0.05661	0.011902	0.082703	0.15747	-0.035553	-0.003815	-0.006714	0.009003	-0.20248	-0.005188	-0.19867	0.063171	-0.056458	-0.020447	0.010681	-0.009308	0.031433	-0.007935	0.076447	-0.028229	-0.003815	0.017853
16.787	-0.03418	-0.011902	0.014191	0.011749	0.017395	0.0354	0.11765	-0.006409	0.056	0.012665	0.29266	0.007172	-0.022888	0.11597	-0.078735	-0.00885	-0.022736	0.026398	0.040588	0.029144	0.078888	0.090942	-0.088196	-0.019989	0.023651	-0.00824	0.012817	-0.00824	0.012054	-0.02533	-0.003052	0.019684
16.788	0.003204	-0.025482	-0.025024	0.005951	0.019684	-0.10101	0.095825	-0.003052	0.073242	0.032349	0.45273	0.005646	-0.058594	-0.014648	0.084076	-0.002136	-0.023651	-0.011597	0.2446	0.093231	0.23621	0.12848	-0.071259	-0.046997	0.00473	-0.007324	-0.006866	-0.003204	0.027466	-0.018921	-0.00351	0.016937
16.789	0.085907	-0.046082	-0.013733	0.011749	0.013428	-0.069885	0.049896	-0.005951	0.081787	0.034943	0.29053	0.010834	-0.043488	-0.0354	0.009003	-0.008545	-0.00412	-0.044708	0.54901	0.061493	0.14587	0.050354	-0.090027	-0.033569	0.027008	-0.002594	-0.031433	-0.00824	0.072784	-0.00351	-0.001526	0.015717
16.79	0.02121	-0.040894	-0.030975	0.019531	0.021362	-0.042572	0.080414	-0.005951	0.072937	0.015717	0.061188	0.00351	0.044098	0.010986	-0.02655	-0.004883	0.016327	-0.082092	0.69626	0.050049	0.023041	0.021515	-0.093842	-0.030518	-0.000305	-0.001831	-0.019379	-0.007935	0.032806	-0.00473	-0.003357	0.027161
16.791	-0.007477	-0.035248	-0.054169	0.0177	0.009003	-0.002289	0.13123	0.011292	0.041199	-0.007019	-0.1181	-0.005341	0.050201	-0.056915	-0.33279	0.00412	0.04715	-0.12878	0.057831	0.009766	-0.075989	-0.027466	-0.098724	-0.11078	0.007629	-0.005798	-0.014343	-0.005951	0.044861	-0.018616	-0.002136	0.031281
16.792	0.010376	-0.005951	-0.032501	0.003357	0.023804	0.001068	0.1326	0.024261	-0.16403	0.005188	-0.22705	0.00824	-0.014191	0.012817	0.11658	0.006256	0.046082	-0.090332	-0.34256	0.027618	-0.11032	-0.015564	-0.15671	-0.09552	0.010071	0.000153	-0.007477	-0.006561	0.066681	-0.014038	-0.003204	0.036011
16.793	0.006409	-0.017548	0.10574	-0.002441	0.018158	-0.015564	0.052338	0.029602	-0.15549	0.034943	-0.18082	0.014801	-0.064545	0.014038	-0.10284	0.007935	0.028992	-0.069733	-0.46356	0.023346	-0.17975	0.010071	-0.12054	-0.086517	0.013885	-0.001678	0.008392	-0.013885	0.083771	-0.001984	-0.001373	0.043335
16.794	0.005035	-0.016937	0.084534	-0.006409	0.017395	-0.022583	-0.10544	0.033417	-0.015259	0.024872	0.024719	0.004272	-0.054626	-0.015564	0.031738	0.014954	-0.010529	-0.026398	-0.45242	0.025482	0.10483	0.11978	-0.13153	-0.030212	0.03006	-0.007324	0.005035	-0.010529	0.17853	0.009613	-0.000763	0.061646
16.795	-0.006409	-0.032654	-0.029755	-0.006714	0.009613	-0.038757	-0.25116	0.036926	0.085144	0.02121	0.072632	-0.000305	-0.041962	0.012054	-0.020294	0.011444	-0.054626	-0.006561	-0.29251	-0.019836	-0.11231	0.18906	-0.10162	0.042572	0.035095	-0.002899	-0.002136	-0.010071	0.25665	-0.02182	-0.001831	0.07019
16.796	0.007477	-0.016327	-0.022278	0.007172	0.019989	-0.011292	-0.23834	0.001068	0.242	0.009308	-0.10056	-0.000153	0.046692	0.016174	0.37552	0.010529	-0.032806	-0.041351	-0.37567	-0.029297	-0.15686	0.2092	-0.070496	0.005646	0.010681	-0.002441	0.015259	-0.014343	-0.078888	0.018463	0.001068	0.095215
16.797	0.002747	-0.025635	0.001526	0.020905	0.029449	-0.003052	-0.038605	-0.032501	0.38711	0.034637	-0.21942	0.015411	0.023499	0.00061	0.11459	0.020905	-0.028534	-0.036926	-0.159	-0.13473	0.031433	0.24216	-0.055237	-0.037994	0.019989	-0.007629	0.045624	-0.007935	-0.45883	-0.010223	-0.004272	0.14923
16.798	-0.003052	-0.042725	0.039673	-0.008698	0.021667	0.003967	0.18524	-0.037231	0.19974	0.023041	-0.11292	0.004272	-0.011597	-0.037079	-0.7785	0.015259	-0.035706	-0.049286	-0.041504	-0.15213	-0.061646	0.27985	-0.035706	-0.020294	0.011749	0.002289	0.028687	-0.006104	-0.33264	-0.007172	-0.000305	-0.090637
16.799	-0.001678	-0.042114	-0.014343	0.011444	0.018463	-0.005493	0.15808	-0.01709	-0.09491	0.010834	0.001221	0.009308	-0.024719	-0.038452	-0.47058	0.019226	-0.032043	-0.043182	-0.08606	-0.16205	0.18768	0.26901	-0.04715	-0.03006	0.007172	-0.00351	-0.007477	-0.007477	0.29007	-0.03418	-0.005188	-0.24658
16.8	0	-0.043793	-0.064697	0.004272	0.026245	-0.010529	0.11963	0.001984	-0.20981	-0.035095	0.08316	0.010376	0.090637	0.02182	-0.41901	0.013885	-0.033112	-0.062408	-0.22446	-0.06958	0.3006	0.15854	-0.10284	0.063019	0.025787	-0.003662	-0.011444	-0.006104	0.34409	-0.023804	-0.005798	-0.29022
